<svg version="1.1" xmlns="http://www.w3.org/2000/svg" xmlns:xlink="http://www.w3.org/1999/xlink"
x="0px" y="0px" viewBox="1.551 1.834 41.475 14.38" xml:space="preserve" alt="Logo" class="page-header__item page-header__logo">
<rect x="1.551" y="1.865" fill="#80CC3F" width="2" height="13.726" class="logo-line1" />
<rect x="4.953" y="1.865" fill="#4960CC" width="2" height="13.726" class="logo-line2" />
<rect x="8.354" y="1.865" fill="#8054cc" width="2" height="13.726" class="logo-line3" />
<path d="M25.512,3.834v-2c-4.983,0-9.342,2.672-11.756,6.65v-6.62h-2V15.59h2c0-2.122,0.573-4.108,1.561-5.829l5.163,6.453
    l1.562-1.249l-5.535-6.918C18.664,5.476,21.898,3.834,25.512,3.834z" class="logo-K" />
<path d="M36.008,6.843V3.834h4.669v-2H29.339v2h4.669v3.009c0,4.972,4.045,9.018,9.018,9.018v-2
    C39.156,13.861,36.008,10.713,36.008,6.843z" class="logo-A" />
<path d="M31.898,10.627V4.958h-2v1.577C29,5.82,27.88,5.375,26.646,5.375c-2.896,0-5.252,2.356-5.252,5.252s2.356,5.252,5.252,5.252
    c1.752,0,3.297-0.871,4.252-2.194c0.955,1.323,2.5,2.194,4.252,2.194v-2C33.357,13.879,31.898,12.42,31.898,10.627z M26.646,13.879
    c-1.793,0-3.252-1.459-3.252-3.252s1.459-3.252,3.252-3.252s3.252,1.459,3.252,3.252S28.439,13.879,26.646,13.879z"
    class="logo-T" />
</svg>